# xmcd
#
# Track frame offsets:
#       150
#       13695
#       34985
#       60430
#       92917
#       112973
#       129003
#       143275
#       165880
#       178785
#       195103
#       210259
#       227952
#       248000
#
# Disc length: 3604 seconds
#
# Revision: 12
# Processed by: cddbd v1.5.1PL0 Copyright (c) Steve Scherf et al.
# Submitted via: WhereIsIt 3.67
#
DISCID=a00e120e
DTITLE=George Harrison - All Things Must Pass - CD 1
DYEAR=1970
DGENRE=Rock
TTITLE0=I'd Have You Anytime
TTITLE1=My Sweet Lord
TTITLE2=Wah-Wah
TTITLE3=Isn't It A Pity
TTITLE4=What Is Life
TTITLE5=If Not For You
TTITLE6=Behind That Locked Door
TTITLE7=Let It Down
TTITLE8=Run Of The Mill
TTITLE9=I Live For You
TTITLE10=Beware Of Darkness
TTITLE11=Let It Down
TTITLE12=What Is Life
TTITLE13=My Sweet Lord
EXTD=
EXTT0=
EXTT1=
EXTT2=
EXTT3=
EXTT4=
EXTT5=
EXTT6=
EXTT7=
EXTT8=
EXTT9=
EXTT10=
EXTT11=
EXTT12=
EXTT13=
PLAYORDER=
